<svg width="1024" height="1024" viewBox="0 0 1024 1024" fill="none" xmlns="http://www.w3.org/2000/svg">
<path d="M83 900.533V816.497H112.672C117.725 816.313 122.747 817.349 127.306 819.515C130.917 821.306 133.905 824.126 135.886 827.613C137.791 831.052 138.767 834.92 138.72 838.843C138.828 841.94 138.166 845.016 136.792 847.801C135.596 850.048 133.853 851.965 131.721 853.378C129.648 854.749 127.362 855.775 124.954 856.414V857.236C127.752 857.472 130.445 858.404 132.782 859.948C135.536 861.727 137.801 864.155 139.375 867.014C141.245 870.467 142.163 874.348 142.036 878.264C142.092 882.24 141.088 886.16 139.125 889.628C136.987 893.179 133.786 895.983 129.967 897.649C124.819 899.801 119.257 900.805 113.675 900.591L83 900.533ZM93.2764 853.397H112.345C115.248 853.443 118.124 852.829 120.751 851.601C123.166 850.468 125.226 848.705 126.708 846.502C128.204 844.233 128.977 841.572 128.926 838.862C128.964 837.113 128.642 835.373 127.979 833.751C127.316 832.129 126.326 830.658 125.069 829.427C122.467 826.849 118.36 825.607 112.711 825.607H93.2764V853.397ZM93.2764 891.595H113.675C120.384 891.595 125.243 890.315 128 887.775C129.352 886.602 130.431 885.153 131.163 883.528C131.895 881.902 132.263 880.139 132.242 878.359C132.258 875.573 131.498 872.837 130.044 870.452C128.536 867.983 126.376 865.969 123.797 864.627C120.823 863.097 117.506 862.341 114.157 862.431H93.2764V891.595Z" fill="black"/>
<path d="M237.981 858.625C238.173 866.601 236.5 874.513 233.096 881.739C230.16 887.916 225.523 893.138 219.721 896.802C213.857 900.267 207.16 902.095 200.338 902.095C193.515 902.095 186.819 900.267 180.954 896.802C175.163 893.127 170.528 887.907 167.579 881.739C164.37 874.423 162.714 866.529 162.714 858.548C162.714 850.567 164.37 842.672 167.579 835.356C170.534 829.187 175.167 823.962 180.954 820.274C186.823 816.822 193.518 815 200.338 815C207.158 815 213.853 816.822 219.721 820.274C225.519 823.95 230.155 829.178 233.096 835.356C236.526 842.628 238.199 850.596 237.981 858.625ZM227.979 858.625C228.175 852.226 226.916 845.866 224.296 840.018C222.16 835.295 218.701 831.283 214.333 828.461C210.101 825.922 205.252 824.58 200.309 824.58C195.366 824.58 190.516 825.922 186.285 828.461C181.916 831.283 178.457 835.295 176.321 840.018C171.411 851.936 171.411 865.295 176.321 877.213C178.457 881.936 181.916 885.948 186.285 888.77C190.516 891.308 195.366 892.65 200.309 892.65C205.252 892.65 210.101 891.308 214.333 888.77C218.701 885.948 222.16 881.936 224.296 877.213C226.906 871.369 228.152 865.015 227.94 858.625H227.979Z" fill="black"/>
<path d="M307.986 837.272C307.794 835.297 307.141 833.392 306.077 831.706C305.013 830.019 303.567 828.596 301.851 827.548C297.903 825.133 293.313 823.924 288.664 824.077C285.237 824.038 281.839 824.691 278.681 825.995C276.053 827.037 273.764 828.761 272.058 830.981C270.483 833.065 269.646 835.598 269.674 838.192C269.629 840.23 270.207 842.234 271.335 843.946C272.457 845.556 273.908 846.921 275.594 847.954C277.321 849.001 279.154 849.869 281.064 850.543C283.018 851.215 284.717 851.752 286.319 852.173L295.052 854.475C297.299 855.069 299.8 855.856 302.554 856.872C305.365 857.92 308.03 859.312 310.486 861.015C313.018 862.777 315.142 865.045 316.718 867.67C318.445 870.727 319.296 874.187 319.18 877.681C319.234 882.065 317.97 886.368 315.546 890.051C312.936 893.897 309.272 896.942 304.977 898.835C294.469 903.066 282.709 903.183 272.116 899.161C267.904 897.418 264.247 894.597 261.527 890.991C258.939 887.422 257.435 883.206 257.19 878.832H267.936C268.107 881.753 269.27 884.535 271.237 886.733C273.237 888.854 275.75 890.443 278.544 891.355C281.621 892.373 284.85 892.878 288.097 892.851C291.766 892.912 295.411 892.26 298.823 890.933C301.757 889.824 304.343 887.979 306.325 885.582C308.177 883.289 309.158 880.434 309.099 877.508C309.216 875.018 308.364 872.577 306.716 870.681C304.964 868.805 302.808 867.338 300.405 866.385C297.661 865.235 294.842 864.268 291.966 863.489L281.377 860.535C275.488 859.07 270.025 856.287 265.415 852.404C263.479 850.655 261.953 848.515 260.941 846.131C259.929 843.747 259.456 841.176 259.554 838.595C259.454 834.159 260.825 829.811 263.462 826.206C266.188 822.588 269.842 819.743 274.05 817.959C278.739 815.935 283.816 814.928 288.937 815.006C294.024 814.916 299.07 815.91 303.726 817.921C307.787 819.661 311.325 822.395 314.003 825.861C316.524 829.158 317.925 833.15 318.008 837.272H307.986Z" fill="black"/>
<path d="M389.044 837.271C388.856 835.298 388.207 833.394 387.146 831.707C386.086 830.02 384.643 828.597 382.931 827.548C378.979 825.129 374.382 823.92 369.728 824.077C366.309 824.038 362.918 824.691 359.767 825.995C357.133 827.034 354.838 828.757 353.127 830.981C351.558 833.067 350.728 835.599 350.763 838.192C350.708 840.231 351.287 842.238 352.423 843.946C353.535 845.564 354.987 846.931 356.681 847.954C358.401 849 360.227 849.868 362.13 850.543C364.083 851.214 365.782 851.751 367.384 852.173L376.114 854.474C378.36 855.069 380.86 855.855 383.614 856.872C386.426 857.915 389.091 859.307 391.544 861.014C394.117 862.764 396.281 865.033 397.891 867.669C399.624 870.725 400.481 874.184 400.371 877.68C400.425 882.065 399.161 886.367 396.739 890.05C394.121 893.897 390.452 896.942 386.153 898.834C375.655 903.067 363.904 903.183 353.322 899.16C349.109 897.422 345.452 894.599 342.736 890.99C340.15 887.419 338.641 883.205 338.381 878.831H349.064C349.22 881.753 350.376 884.537 352.345 886.733C354.353 888.852 356.872 890.441 359.669 891.355C362.746 892.372 365.974 892.878 369.22 892.85C372.881 892.91 376.519 892.258 379.923 890.933C382.859 889.818 385.45 887.975 387.442 885.582C389.285 883.284 390.264 880.432 390.215 877.508C390.327 875.015 389.468 872.574 387.813 870.68C386.064 868.812 383.917 867.345 381.524 866.384C378.773 865.238 375.948 864.27 373.067 863.488L362.501 860.535C356.613 859.074 351.151 856.29 346.545 852.403C344.605 850.658 343.076 848.518 342.064 846.134C341.052 843.749 340.582 841.176 340.685 838.595C340.585 834.158 341.956 829.81 344.592 826.206C347.313 822.583 350.966 819.737 355.177 817.959C359.864 815.935 364.94 814.928 370.06 815.005C375.138 814.918 380.175 815.913 384.825 817.92C388.884 819.661 392.422 822.395 395.098 825.86C397.583 829.169 398.95 833.16 399.004 837.271H389.044Z" fill="black"/>
<path d="M424 900.562V816.476H474.19V825.516H434.133V853.952H470.426V862.991H434.133V900.619L424 900.562Z" fill="black"/>
<path d="M570.124 858.625C570.316 866.601 568.644 874.513 565.24 881.739C562.293 887.907 557.66 893.127 551.87 896.802C546.007 900.267 539.313 902.095 532.492 902.095C525.672 902.095 518.977 900.267 513.115 896.802C507.325 893.127 502.692 887.907 499.744 881.739C496.521 874.427 494.857 866.531 494.857 858.548C494.857 850.565 496.521 842.668 499.744 835.356C502.697 829.187 507.329 823.962 513.115 820.274C518.982 816.822 525.674 815 532.492 815C539.31 815 546.003 816.822 551.87 820.274C557.656 823.962 562.287 829.187 565.24 835.356C568.67 842.628 570.342 850.596 570.124 858.625ZM560.125 858.625C560.315 852.225 559.05 845.864 556.424 840.018C554.289 835.295 550.831 831.283 546.464 828.461C542.239 825.916 537.393 824.57 532.454 824.57C527.514 824.57 522.668 825.916 518.443 828.461C514.076 831.283 510.618 835.295 508.483 840.018C503.549 851.931 503.549 865.3 508.483 877.213C510.618 881.936 514.076 885.948 518.443 888.77C522.668 891.315 527.514 892.66 532.454 892.66C537.393 892.66 542.239 891.315 546.464 888.77C550.831 885.948 554.289 881.936 556.424 877.213C559.053 871.374 560.318 865.019 560.125 858.625Z" fill="black"/>
<path d="M593.761 900.505V816.5H622.297C627.903 816.294 633.476 817.44 638.54 819.841C642.547 821.867 645.828 825.074 647.937 829.024C650.02 833.129 651.067 837.676 650.987 842.274C651.076 846.854 650.029 851.386 647.937 855.467C645.828 859.357 642.558 862.499 638.579 864.459C633.541 866.811 628.011 867.93 622.451 867.724H599.438V858.541H622.125C625.858 858.7 629.581 858.048 633.037 856.631C635.615 855.48 637.735 853.504 639.058 851.018C640.385 848.317 641.043 845.338 640.976 842.331C641.039 839.282 640.382 836.261 639.058 833.511C637.755 830.941 635.62 828.883 632.998 827.669C629.539 826.139 625.772 825.427 621.99 825.588H604.021V900.619L593.761 900.505ZM633.497 862.741L654.285 900.505H642.453L621.99 862.741H633.497Z" fill="black"/>
<path d="M721.26 837.329C721.064 835.357 720.409 833.455 719.346 831.771C718.282 830.086 716.838 828.664 715.125 827.614C711.178 825.2 706.587 823.993 701.938 824.146C698.512 824.107 695.114 824.759 691.955 826.062C689.323 827.105 687.028 828.826 685.313 831.044C683.744 833.128 682.913 835.658 682.949 838.248C682.893 840.286 683.473 842.291 684.609 843.997C685.722 845.614 687.174 846.98 688.868 848.002C690.593 849.051 692.427 849.918 694.338 850.588C696.292 851.259 697.992 851.796 699.574 852.217L708.326 854.517C710.554 855.111 713.054 855.896 715.809 856.912C718.623 857.94 721.295 859.311 723.76 860.993C726.309 862.77 728.446 865.056 730.032 867.7C731.773 870.749 732.631 874.208 732.513 877.702C732.566 882.082 731.302 886.381 728.879 890.061C726.261 893.905 722.591 896.946 718.29 898.837C707.789 903.066 696.035 903.182 685.449 899.163C681.235 897.426 677.577 894.606 674.86 891C672.272 887.435 670.768 883.222 670.523 878.852H681.268C681.422 881.775 682.587 884.559 684.57 886.746C686.57 888.865 689.083 890.453 691.877 891.364C694.954 892.381 698.183 892.886 701.43 892.859C705.093 892.918 708.731 892.267 712.136 890.943C715.073 889.829 717.665 887.987 719.658 885.596C721.509 883.305 722.49 880.453 722.432 877.529C722.544 875.039 721.684 872.6 720.029 870.708C718.285 868.835 716.135 867.368 713.738 866.416C710.994 865.267 708.174 864.301 705.298 863.522L694.71 860.572C688.842 859.074 683.406 856.267 678.826 852.37C676.886 850.627 675.357 848.489 674.345 846.106C673.332 843.724 672.862 841.153 672.965 838.574C672.865 834.142 674.236 829.797 676.873 826.196C679.599 822.581 683.253 819.739 687.462 817.956C692.15 815.934 697.227 814.928 702.348 815.006C707.435 814.916 712.481 815.91 717.137 817.918C721.193 819.657 724.725 822.388 727.394 825.851C729.921 829.144 731.329 833.132 731.419 837.252L721.26 837.329Z" fill="black"/>
<path d="M756.143 900.619V816.514H766.27V858.242H767.258L804.842 816.476H818.143L782.934 854.419L818.066 900.6H805.811L776.739 861.491L766.27 873.323V900.6L756.143 900.619Z" fill="black"/>
<path d="M849.142 816.476V900.619H838.809V816.476H849.142Z" fill="black"/>
<path d="M868.333 816.476H880.161L903.916 855.794H904.927L928.798 816.476H940.666L909.655 865.929V900.619H899.285V865.929L868.333 816.476Z" fill="black"/>
<path d="M376.648 747.746C378.028 747.746 379.148 748.865 379.148 750.246V753.5C379.148 754.88 378.028 756 376.648 756H260.352C258.972 756 257.852 754.88 257.852 753.5V750.246C257.852 748.865 258.972 747.746 260.352 747.746H376.648ZM357.205 728.128L365.133 734.553C365.706 735.043 366.06 735.733 366.06 736.496V742.745H270.94V736.496C270.94 735.742 271.281 735.028 271.867 734.553L279.795 728.128H357.205ZM296.205 230.787V723.127H281.41V230.787H296.205ZM316.001 230.787V723.127H301.204V230.787H316.001ZM335.796 230.787V723.127H321V230.787H335.796ZM355.59 230.787V723.127H340.795V230.787H355.59ZM358.09 217.532C360.098 217.532 361.249 219.819 360.054 221.433L356.83 225.787H280.17L276.946 221.433C275.751 219.819 276.903 217.532 278.91 217.532H358.09ZM373.258 154.436V166.519C373.258 167.225 372.959 167.897 372.439 168.369L372.332 168.461L358.369 179.775C356.611 181.199 355.59 183.341 355.59 185.604V212.531H281.41V185.604C281.41 183.314 280.348 181.247 278.631 179.775L264.668 168.461C264.083 167.987 263.742 167.273 263.742 166.519V154.436H373.258ZM384.5 138C385.881 138 387 139.12 387 140.5V146.935C387 148.316 385.881 149.436 384.5 149.436H252.5C251.119 149.436 250 148.316 250 146.935V140.5C250 139.119 251.119 138 252.5 138H384.5Z" fill="black"/>
<path d="M763.648 747.746C765.028 747.746 766.148 748.865 766.148 750.246V753.5C766.148 754.88 765.028 756 763.648 756H647.352C645.972 756 644.852 754.88 644.852 753.5V750.246C644.852 748.865 645.972 747.746 647.352 747.746H763.648ZM744.205 728.128L752.133 734.553C752.706 735.043 753.06 735.733 753.06 736.496V742.745H657.94V736.496C657.94 735.742 658.281 735.028 658.867 734.553L666.795 728.128H744.205ZM683.205 230.787V723.127H668.41V230.787H683.205ZM703.001 230.787V723.127H688.204V230.787H703.001ZM722.796 230.787V723.127H708V230.787H722.796ZM742.59 230.787V723.127H727.795V230.787H742.59ZM745.09 217.532C747.098 217.532 748.249 219.819 747.054 221.433L743.83 225.787H667.17L663.946 221.433C662.751 219.819 663.903 217.532 665.91 217.532H745.09ZM760.258 154.436V166.519C760.258 167.225 759.959 167.897 759.439 168.369L759.332 168.461L745.369 179.775C743.611 181.199 742.59 183.341 742.59 185.604V212.531H668.41V185.604C668.41 183.314 667.348 181.247 665.631 179.775L651.668 168.461C651.083 167.987 650.742 167.273 650.742 166.519V154.436H760.258ZM771.5 138C772.881 138 774 139.12 774 140.5V146.935C774 148.316 772.881 149.436 771.5 149.436H639.5C638.119 149.436 637 148.316 637 146.935V140.5C637 139.119 638.119 138 639.5 138H771.5Z" fill="black"/>
<path fill-rule="evenodd" clip-rule="evenodd" d="M606.383 642.115C572.442 694.816 502.283 710.074 449.677 676.195C412.674 652.363 394.212 610.567 398.33 569.529C400.066 552.226 405.794 534.431 415.86 518.801C422.211 514.998 426.823 516.81 432.043 520.035C443.844 526.155 458.43 520.76 466.362 510.824C475.087 500.275 485.92 490.899 499.458 487.43C499.966 480.006 500.218 471.713 497.379 464.675C496.54 462.595 495.431 460.624 493.978 458.818C482.698 458.522 471.369 458.493 460.115 458C441.223 465.378 421.778 473.484 407.379 488.287C402.142 493.63 397.8 499.794 394.46 506.461C352.745 571.234 370.7 658.636 435.356 700.276C473.622 724.92 519.446 728.41 559.125 713.725C561.744 712.756 564.337 711.708 566.898 710.581C570.182 709.267 573.401 707.814 576.55 706.228C617.482 684.872 645.425 642.035 645.425 592.671C645.425 589.67 645.322 586.693 645.119 583.744C640.535 517.216 585.117 464.671 517.425 464.671C513.89 464.671 510.388 464.815 506.925 465.096C590.971 471.92 654.314 567.691 606.383 642.115ZM428.371 499.229C430.161 495.255 433.235 492.044 435.972 488.715C445.192 476.962 460.843 477.055 474.344 476.041C466.604 483.773 462.358 497.824 449.907 498.833C445.285 498.41 441.121 495.138 436.369 496.133C433.463 496.366 430.825 497.768 428.371 499.229Z" fill="black"/>
<path fill-rule="evenodd" clip-rule="evenodd" d="M411.043 252.556C444.983 199.855 515.143 184.597 567.748 218.477C604.752 242.308 623.213 284.104 619.095 325.143C617.359 342.445 611.631 360.241 601.565 375.871C595.215 379.674 590.603 377.862 585.382 374.637C573.581 368.516 558.995 373.911 551.064 383.847C542.338 394.396 531.505 403.772 517.967 407.242C517.46 414.665 517.207 422.958 520.046 429.996C520.885 432.077 521.995 434.047 523.447 435.853C534.727 436.15 546.056 436.178 557.311 436.671C576.202 429.293 595.647 421.187 610.046 406.385C615.284 401.041 619.626 394.878 622.965 388.21C664.681 323.437 646.725 236.036 582.07 194.396C543.803 169.751 497.98 166.261 458.3 180.946C455.681 181.915 453.089 182.964 450.527 184.091C447.244 185.404 444.024 186.858 440.876 188.444C399.944 209.799 372 252.636 372 302C372 305.001 372.103 307.978 372.307 310.928C376.89 377.455 432.309 430 500 430C503.535 430 507.037 429.857 510.5 429.575C426.454 422.752 363.111 326.981 411.043 252.556ZM589.054 395.442C587.264 399.416 584.191 402.628 581.454 405.956C572.233 417.709 556.583 417.617 543.081 418.63C550.821 410.898 555.067 396.847 567.518 395.838C572.14 396.261 576.305 399.533 581.056 398.538C583.962 398.305 586.6 396.903 589.054 395.442Z" fill="black"/>
<path d="M609.403 978.512C606.89 978.512 604.645 978.079 602.668 977.213C600.704 976.347 599.149 975.145 598.002 973.608C596.867 972.059 596.257 970.265 596.172 968.228H601.918C601.991 969.338 602.363 970.302 603.034 971.119C603.718 971.925 604.608 972.547 605.706 972.986C606.804 973.425 608.024 973.645 609.366 973.645C610.842 973.645 612.148 973.389 613.282 972.876C614.429 972.364 615.326 971.65 615.972 970.735C616.619 969.808 616.942 968.74 616.942 967.533C616.942 966.276 616.619 965.172 615.972 964.22C615.338 963.256 614.405 962.5 613.172 961.951C611.952 961.402 610.476 961.128 608.744 961.128H605.578V956.516H608.744C610.135 956.516 611.355 956.266 612.404 955.766C613.465 955.266 614.295 954.57 614.893 953.68C615.49 952.777 615.789 951.721 615.789 950.514C615.789 949.355 615.527 948.348 615.002 947.494C614.49 946.628 613.758 945.951 612.806 945.463C611.867 944.975 610.757 944.731 609.476 944.731C608.256 944.731 607.115 944.957 606.054 945.408C605.005 945.847 604.151 946.482 603.492 947.311C602.833 948.129 602.479 949.111 602.43 950.257H596.959C597.02 948.232 597.618 946.451 598.752 944.914C599.899 943.377 601.412 942.175 603.291 941.309C605.169 940.443 607.256 940.01 609.549 940.01C611.952 940.01 614.026 940.479 615.771 941.419C617.528 942.346 618.882 943.584 619.834 945.133C620.797 946.683 621.273 948.379 621.261 950.221C621.273 952.319 620.688 954.1 619.504 955.564C618.333 957.028 616.771 958.011 614.819 958.511V958.804C617.308 959.182 619.236 960.17 620.602 961.768C621.981 963.366 622.664 965.349 622.652 967.716C622.664 969.777 622.091 971.626 620.932 973.26C619.785 974.895 618.217 976.182 616.229 977.122C614.24 978.049 611.965 978.512 609.403 978.512Z" fill="black"/>
<path d="M576.769 978.513C574.476 978.513 572.414 978.073 570.584 977.195C568.766 976.304 567.315 975.084 566.229 973.535C565.143 971.986 564.563 970.217 564.49 968.228H569.98C570.114 969.838 570.828 971.162 572.121 972.199C573.414 973.236 574.964 973.755 576.769 973.755C578.209 973.755 579.484 973.425 580.594 972.766C581.717 972.095 582.595 971.174 583.229 970.003C583.876 968.832 584.199 967.496 584.199 965.995C584.199 964.47 583.87 963.11 583.211 961.915C582.552 960.719 581.643 959.78 580.484 959.096C579.338 958.413 578.02 958.065 576.532 958.053C575.397 958.053 574.256 958.248 573.109 958.639C571.963 959.029 571.035 959.542 570.328 960.176L565.149 959.407L567.254 940.522H587.859V945.371H571.957L570.767 955.857H570.987C571.719 955.15 572.689 954.558 573.896 954.082C575.116 953.606 576.422 953.368 577.813 953.368C580.094 953.368 582.125 953.911 583.906 954.997C585.7 956.083 587.109 957.565 588.134 959.444C589.171 961.311 589.683 963.458 589.671 965.886C589.683 968.313 589.134 970.479 588.024 972.382C586.926 974.285 585.401 975.786 583.449 976.884C581.509 977.97 579.283 978.513 576.769 978.513Z" fill="black"/>
<path d="M544.1 940.01C545.771 940.022 547.418 940.327 549.041 940.925C550.663 941.522 552.127 942.498 553.433 943.853C554.75 945.207 555.799 947.037 556.58 949.342C557.373 951.636 557.776 954.491 557.788 957.907C557.788 961.189 557.459 964.111 556.8 966.672C556.141 969.222 555.195 971.376 553.963 973.132C552.743 974.889 551.261 976.225 549.516 977.14C547.772 978.055 545.808 978.513 543.624 978.513C541.391 978.513 539.409 978.073 537.676 977.195C535.944 976.317 534.535 975.103 533.449 973.553C532.363 971.992 531.686 970.198 531.418 968.173H536.999C537.365 969.783 538.109 971.089 539.232 972.089C540.366 973.077 541.83 973.572 543.624 973.572C546.369 973.572 548.51 972.376 550.047 969.985C551.584 967.581 552.359 964.226 552.371 959.92H552.078C551.444 960.969 550.651 961.872 549.699 962.628C548.76 963.385 547.705 963.97 546.533 964.385C545.362 964.8 544.112 965.007 542.782 965.007C540.623 965.007 538.658 964.477 536.889 963.415C535.12 962.354 533.711 960.896 532.662 959.041C531.613 957.187 531.088 955.07 531.088 952.691C531.088 950.325 531.625 948.177 532.699 946.25C533.785 944.322 535.297 942.797 537.237 941.675C539.189 940.54 541.477 939.985 544.1 940.01ZM544.118 944.768C542.691 944.768 541.403 945.121 540.257 945.829C539.122 946.524 538.225 947.47 537.567 948.665C536.908 949.849 536.578 951.166 536.578 952.618C536.578 954.07 536.896 955.388 537.53 956.571C538.177 957.742 539.055 958.675 540.165 959.371C541.288 960.054 542.569 960.396 544.008 960.396C545.082 960.396 546.082 960.188 547.009 959.773C547.936 959.359 548.748 958.785 549.443 958.053C550.139 957.309 550.681 956.467 551.072 955.528C551.462 954.588 551.657 953.6 551.657 952.563C551.657 951.185 551.328 949.904 550.669 948.72C550.023 947.537 549.132 946.585 547.997 945.866C546.863 945.134 545.57 944.768 544.118 944.768Z" fill="black"/>
<path d="M521.499 940.522V978H515.826V946.195H515.607L506.64 952.051V946.634L515.991 940.522H521.499Z" fill="black"/>
<path d="M483.33 978.348C482.33 978.348 481.47 977.994 480.75 977.286C480.03 976.566 479.67 975.7 479.67 974.688C479.67 973.687 480.03 972.833 480.75 972.126C481.47 971.406 482.33 971.046 483.33 971.046C484.331 971.046 485.191 971.406 485.911 972.126C486.63 972.833 486.99 973.687 486.99 974.688C486.99 975.359 486.82 975.975 486.478 976.536C486.149 977.085 485.709 977.524 485.16 977.853C484.611 978.183 484.001 978.348 483.33 978.348Z" fill="black"/>
<path d="M473.672 949.891V954.283H458.319V949.891H473.672ZM462.436 943.157H467.908V969.747C467.908 970.808 468.067 971.607 468.384 972.144C468.701 972.669 469.11 973.028 469.61 973.224C470.122 973.407 470.677 973.498 471.275 973.498C471.714 973.498 472.099 973.468 472.428 973.407C472.757 973.346 473.014 973.297 473.197 973.26L474.185 977.78C473.868 977.902 473.416 978.024 472.831 978.146C472.245 978.281 471.513 978.354 470.635 978.366C469.195 978.39 467.853 978.134 466.609 977.597C465.364 977.061 464.358 976.231 463.589 975.109C462.821 973.986 462.436 972.577 462.436 970.881V943.157Z" fill="black"/>
<path d="M453.987 956.754L449.027 957.632C448.82 956.998 448.491 956.394 448.039 955.821C447.6 955.247 447.002 954.777 446.246 954.411C445.49 954.045 444.544 953.862 443.409 953.862C441.86 953.862 440.567 954.21 439.53 954.906C438.493 955.589 437.974 956.473 437.974 957.559C437.974 958.498 438.322 959.255 439.017 959.828C439.713 960.402 440.835 960.871 442.385 961.237L446.85 962.262C449.436 962.86 451.364 963.781 452.633 965.025C453.901 966.27 454.536 967.886 454.536 969.875C454.536 971.558 454.048 973.059 453.072 974.377C452.108 975.682 450.76 976.707 449.027 977.451C447.307 978.195 445.313 978.567 443.043 978.567C439.896 978.567 437.328 977.896 435.339 976.554C433.351 975.2 432.131 973.279 431.679 970.79L436.968 969.985C437.297 971.363 437.974 972.406 438.999 973.114C440.024 973.809 441.36 974.157 443.007 974.157C444.8 974.157 446.234 973.785 447.307 973.041C448.381 972.284 448.918 971.363 448.918 970.277C448.918 969.399 448.588 968.661 447.929 968.063C447.283 967.465 446.289 967.014 444.947 966.709L440.189 965.666C437.566 965.068 435.626 964.116 434.369 962.811C433.125 961.506 432.503 959.853 432.503 957.852C432.503 956.193 432.966 954.741 433.893 953.496C434.821 952.252 436.102 951.282 437.736 950.587C439.371 949.879 441.244 949.525 443.355 949.525C446.392 949.525 448.783 950.184 450.528 951.502C452.273 952.807 453.426 954.558 453.987 956.754Z" fill="black"/>
<path d="M414.793 978.567C412.023 978.567 409.638 977.976 407.637 976.792C405.649 975.597 404.112 973.919 403.026 971.76C401.952 969.588 401.416 967.044 401.416 964.129C401.416 961.25 401.952 958.712 403.026 956.516C404.112 954.32 405.625 952.606 407.564 951.374C409.516 950.141 411.798 949.525 414.408 949.525C415.994 949.525 417.532 949.788 419.02 950.312C420.508 950.837 421.844 951.66 423.028 952.783C424.211 953.905 425.144 955.363 425.828 957.156C426.511 958.938 426.852 961.103 426.852 963.653V965.593H404.508V961.494H421.49C421.49 960.054 421.198 958.779 420.612 957.669C420.027 956.546 419.203 955.662 418.142 955.015C417.092 954.369 415.86 954.045 414.445 954.045C412.908 954.045 411.566 954.424 410.419 955.18C409.284 955.924 408.406 956.9 407.784 958.108C407.174 959.304 406.869 960.603 406.869 962.006V965.208C406.869 967.087 407.198 968.685 407.857 970.003C408.528 971.321 409.461 972.327 410.657 973.022C411.853 973.706 413.249 974.047 414.848 974.047C415.885 974.047 416.83 973.901 417.684 973.608C418.538 973.303 419.276 972.852 419.898 972.254C420.521 971.656 420.996 970.918 421.326 970.04L426.505 970.973C426.09 972.498 425.346 973.834 424.272 974.981C423.211 976.115 421.875 977 420.264 977.634C418.666 978.256 416.842 978.567 414.793 978.567Z" fill="black"/>
</svg>
